<svg width="220" height="62" viewBox="0 0 880 246" fill="none" xmlns="http://www.w3.org/2000/svg">
<path d="M0 246C134.731 163.526 201.208 62.5665 232.491 0H249.91L134.731 246H0Z" fill="#2D5DA7"/>
<path d="M206.896 152.861C235.371 129.943 295.413 104.87 322.786 94.9161C286.384 117.668 261.049 130.465 252.754 135.087C230.196 150.824 235.335 162.815 259.864 162.815C291.573 167.731 486.312 126.46 624.954 89.5837C686.76 73.1443 725.558 57.234 757.197 46.9248L718.803 47.6358C733.707 43.6827 744.396 42.5139 757.197 39.104C792.035 27.7283 824.74 18.13 879.485 4.97681C433.344 178.812 296.835 192.676 202.986 186.633C180.094 182.008 178.421 175.779 206.896 152.861Z" fill="#2D5DA7"/>
<path d="M321.364 205.118L256.665 23.4624L240.668 59.367L288.303 197.653C294.242 211.857 291.554 215.183 277.994 214.361H167.081L151.795 244.934H303.59C328.189 244.109 333.389 236.482 321.364 205.118Z" fill="#565E71"/>
<path d="M305.5 159.5L276 163L284 185.5L313.5 182L305.5 159.5Z" fill="#2D5DA7"/>
<path d="M423.219 22.8076C495.924 22.8076 505.338 37.3266 505.338 96.3943L466.405 96.3388C466.76 54.7457 460.001 58.2264 420.191 57.5896C380.381 56.9527 374.332 61.1438 374.332 135.798C374.332 197.324 375.399 206.541 420.191 206.541C460.006 206.541 470.563 200.633 468.182 162.816H508.353C508.353 226.093 500.176 239.957 421.968 239.957C340.561 239.957 335.228 221.827 335.228 127.978C335.228 46.2139 344.471 22.8076 423.219 22.8076Z" fill="#565E71"/>
<path d="M374.5 147.5L335 154.5L336.5 178.5L375.5 171L374.5 147.5Z" fill="#2D5DA7"/>
<path d="M609.668 206.896C567.009 206.896 567.009 202.63 567.009 171.347H526.838C525.609 227.778 546.39 243.431 609.668 241.379C690.364 238.761 695.341 213.65 695.341 178.101C695.341 128.688 681.611 116.48 621.754 114.113C580.628 113.553 567.955 107.619 567.009 85.3179C566.285 61.6154 576.008 55.5033 609.668 56.1676C643.085 53.6514 651.831 60.8903 651.26 87.8063H690.364C690.364 36.6155 677.213 23.4624 614.289 23.4624C544.968 23.4624 527.549 39.815 527.549 85.3179C527.549 132.954 552.789 146.818 603.269 146.818C646.283 146.818 654.815 146.818 654.815 178.101C654.815 204.763 647.705 206.896 609.668 206.896Z" fill="#565E71"/>
</svg>
